<svg width="90" height="24" viewBox="0 0 90 24" fill="none" xmlns="http://www.w3.org/2000/svg">
<path d="M21.0781 23H24.5781V13.5625H34.2656V10.6094H24.5781V3.46875H35.1562V0.453125H21.0781V23ZM37.7969 23H41.1719V13.2031C41.1719 10.75 42.5156 9.32812 44.6875 9.32812C45.3438 9.32812 45.9375 9.40625 46.2031 9.51562V6.375C45.9375 6.32812 45.5156 6.25 45.0312 6.25C43.1562 6.25 41.7812 7.45312 41.25 9.375H41.1719V6.5625H37.7969V23ZM54.6406 23.3281C59.3438 23.3281 62.4375 20.0781 62.4375 14.7812V14.75C62.4375 9.48438 59.3125 6.25 54.625 6.25C49.9531 6.25 46.8438 9.5 46.8438 14.75V14.7812C46.8438 20.0625 49.9219 23.3281 54.6406 23.3281ZM54.6562 20.5C52.0156 20.5 50.2969 18.4219 50.2969 14.7812V14.75C50.2969 11.1562 52.0312 9.07812 54.625 9.07812C57.2656 9.07812 58.9844 11.1562 58.9844 14.75V14.7812C58.9844 18.4062 57.2969 20.5 54.6562 20.5ZM65.0469 23H68.4219V13.4219C68.4219 10.8594 69.9531 9.14062 72.3281 9.14062C74.6719 9.14062 75.8281 10.5312 75.8281 13V23H79.2188V12.3594C79.2188 8.57812 77.1406 6.25 73.5312 6.25C71.0469 6.25 69.3594 7.375 68.5 9.04688H68.4219V6.5625H65.0469V23ZM88.25 23.3281C88.9375 23.3281 89.5781 23.25 89.9688 23.1875V20.5781C89.7188 20.6094 89.4219 20.6406 89.0625 20.6406C87.6406 20.6406 86.8906 20.1406 86.8906 18.4688V9.25H89.9688V6.5625H86.8906V2.28125H83.4375V6.5625H81.0781V9.25H83.4375V18.6719C83.4375 21.9531 85 23.3281 88.25 23.3281Z" fill="white"/>
<path d="M6.49477 8.83064C5.81514 9.05779 5.46415 9.2733 4.99619 9.82969C4.47848 10.4452 4.40419 11.7149 4.40419 11.7149C4.40419 11.7149 4.23768 14.712 4.40419 17.5426C4.46384 18.5566 4.90372 19.7072 6.5688 19.8738C8.941 20.111 14.3947 19.7072 14.3947 19.7072V21.0393V22.3714C14.3947 22.3714 9.56594 22.8709 6.40229 22.7044C5.06361 22.6339 3.93546 22.397 2.90562 21.5388C1.90653 20.7063 1.57351 20.2068 1.40701 19.5407C1.19894 18.7085 1.17975 18.555 1.0775 17.737L1.07402 17.7091C0.907483 16.3771 1.07401 14.8785 1.07402 13.5464C1.07402 12.2144 1.40705 9.88326 1.40705 9.88326C1.40705 9.88326 1.64707 8.80647 1.90657 8.38469C2.12475 8.03007 2.5726 7.55215 2.5726 7.55215C2.5726 7.55215 3.29096 6.57387 5.23673 6.22008C7.06832 5.88706 9.64052 5.96907 11.3975 6.22007C12.5631 6.38659 13.5268 7.35728 13.8952 7.88517C14.4484 8.6779 14.7277 10.2163 14.7277 10.2163C14.7277 10.2163 14.8386 10.8237 14.8942 11.2153C15.1323 12.8904 14.8942 15.5445 14.8942 15.5445L11.564 15.5445L11.7306 13.713C11.7306 13.713 11.8971 12.2144 11.7306 11.0488C11.6335 10.3692 10.9469 9.47325 10.565 9.21723C9.89689 8.76938 9.29287 8.75641 8.5669 8.71771C7.785 8.67602 7.2374 8.58243 6.49477 8.83064Z" fill="#90A1FF" stroke="#90A1FF" stroke-width="0.5"/>
<g filter="url(#filter0_b_179485_3594)">
<path d="M3.76969 18.5959L13.3615 16.2044C13.7366 16.1109 13.9649 15.731 13.8714 15.3558L13.4517 13.6725C13.3582 13.2974 12.9782 13.0691 12.6031 13.1627L3.0113 15.5542C2.63618 15.6477 2.40791 16.0276 2.50144 16.4027L2.92114 18.086C3.01466 18.4612 3.39457 18.6894 3.76969 18.5959Z" fill="white" fill-opacity="0.75"/>
</g>
<defs>
<filter id="filter0_b_179485_3594" x="-1.51953" y="9.14172" width="19.4119" height="13.4752" filterUnits="userSpaceOnUse" color-interpolation-filters="sRGB">
<feFlood flood-opacity="0" result="BackgroundImageFix"/>
<feGaussianBlur in="BackgroundImageFix" stdDeviation="2"/>
<feComposite in2="SourceAlpha" operator="in" result="effect1_backgroundBlur_179485_3594"/>
<feBlend mode="normal" in="SourceGraphic" in2="effect1_backgroundBlur_179485_3594" result="shape"/>
</filter>
</defs>
</svg>
