<svg width="19" height="18" viewBox="0 0 19 18" fill="none" xmlns="http://www.w3.org/2000/svg">
<path d="M2.75 4.5V10.125" stroke="#90A1FF" stroke-linecap="round" stroke-linejoin="round"/>
<path d="M4.31091 15.1876C4.87374 14.3243 5.64304 13.6151 6.54912 13.1242C7.45521 12.6333 8.46945 12.3762 9.49998 12.3762C10.5305 12.3762 11.5447 12.6333 12.4508 13.1242C13.3569 13.6151 14.1262 14.3243 14.689 15.1876" stroke="#90A1FF" stroke-linecap="round" stroke-linejoin="round"/>
<path d="M16.25 4.5L9.5 6.75L2.75 4.5L9.5 2.25L16.25 4.5Z" stroke="#90A1FF" stroke-linecap="round" stroke-linejoin="round"/>
<path d="M12.4039 5.77972C12.9199 6.34319 13.2608 7.04461 13.3851 7.79846C13.5093 8.55232 13.4116 9.32604 13.1038 10.0253C12.796 10.7246 12.2913 11.3192 11.6514 11.7367C11.0116 12.1541 10.264 12.3764 9.5 12.3764C8.73597 12.3764 7.98845 12.1541 7.34856 11.7367C6.70867 11.3192 6.20405 10.7246 5.89622 10.0253C5.5884 9.32604 5.49067 8.55232 5.61494 7.79846C5.73921 7.04461 6.08011 6.34319 6.5961 5.77972" stroke="#90A1FF" stroke-linecap="round" stroke-linejoin="round"/>
</svg>
